<?xml version="1.0" encoding="UTF-8" standalone="no"?>
<!-- Created with Inkscape (http://www.inkscape.org/) -->
<svg
   xmlns:svg="http://www.w3.org/2000/svg"
   xmlns="http://www.w3.org/2000/svg"
   version="1.0"
   width="81"
   height="81"
   id="svg2510">

  <g id="frown">
    <circle
       cx="0"
       cy="0"
       r="40"
       transform="translate(40.5,40.5)"
       id="circle"
       style="fill:#ffffe0;stroke:#000000;stroke-width:1" />
    <path
       d="M 9.520516,30.043839 C 12.942862,30.426984 29.40177,29.484898 29.40177,29.484898 C 27.631182,39.79233 11.870809,40.312331 9.520516,30.043839 z"
       id="path2382"
       style="fill:#ffffff;fill-opacity:1;fill-rule:evenodd;stroke:#000000;stroke-width:0.88699472px;stroke-linecap:butt;stroke-linejoin:miter;stroke-opacity:1" />
    <path
       d="M 39.016299,29.635536 L 66.073279,31.960711 C 56.930115,44.953179 40.266671,39.965166 39.016299,29.635536 z"
       id="path2384"
       style="fill:#ffffff;fill-opacity:1;fill-rule:evenodd;stroke:#000000;stroke-width:0.88699472px;stroke-linecap:butt;stroke-linejoin:miter;stroke-opacity:1" />
    <path
       d="M 17.14027,60.03529 L 53.2487,61.3365"
       id="path3158"
       style="fill:none;fill-rule:evenodd;stroke:#000000;stroke-width:1px;stroke-linecap:butt;stroke-linejoin:miter;stroke-opacity:1" />
    <path
       d="M 18.72009,31.39186 C 16.48216,31.39186 14.65759,33.21643 14.65759,35.45436 C 14.65759,35.8352 14.71552,36.19857 14.81384,36.54811 C 17.17052,37.60813 19.93842,37.75608 22.43884,37.04811 C 22.64408,36.56313 22.75134,36.01384 22.75134,35.45436 C 22.75134,33.21643 20.95801,31.39184 18.72009,31.39186 z"
       id="circle3162"
       style="fill:#000000;fill-opacity:1;stroke:#000000;stroke-width:1" />
    <path
       d="M 48.47009,32.54811 C 46.23216,32.54811 44.40758,34.37268 44.40759,36.61061 C 44.40759,36.93645 44.45989,37.24445 44.53259,37.54811 C 46.39488,38.69651 48.76529,38.81089 51.10149,39.14751 C 52.0674,38.40625 52.53258,37.92136 52.53259,36.61061 C 52.53259,34.37268 50.70802,32.54809 48.47009,32.54811 z"
       id="circle3164"
       style="fill:#000000;fill-opacity:1;stroke:#000000;stroke-width:1" />
    <path
       d="M 24.459549,48.649752 C 22.833039,51.089512 22.833039,53.366622 23.971599,54.667822 C 25.110149,55.969032 26.248709,53.529272 27.387259,54.342522 C 28.525809,55.155772 30.314969,56.294332 31.290869,55.481072 C 32.266779,54.667822 33.567979,55.155772 35.194489,55.806372 C 36.820989,56.456982 37.796899,55.481072 39.260749,55.318422 C 40.724609,55.155772 40.887259,54.993122 40.887259,54.993122 L 40.887259,54.993122"
       id="path3174"
       style="fill:none;fill-rule:evenodd;stroke:#000000;stroke-width:1px;stroke-linecap:butt;stroke-linejoin:miter;stroke-opacity:1" />
  </g>

  <g id="smile">
    <circle
       cx="0"
       cy="0"
       r="40"
       transform="translate(40.5,40.5)"
       id="circle3178"
       style="fill:#ffffe0;stroke:#000000;stroke-width:1" />
    <path
       d="M 7.760527,34.173464 C 12.180963,39.691804 24.745156,39.901261 27.540459,36.340277 C 26.800966,21.087717 11.128577,19.25711 7.760527,34.173464 z"
       id="path3180"
       style="fill:#ffffff;fill-opacity:1;fill-rule:evenodd;stroke:#000000;stroke-width:0.88699478px;stroke-linecap:butt;stroke-linejoin:miter;stroke-opacity:1" />
    <path
       d="M 37.147931,36.770146 C 42.116409,41.692594 58.151084,41.274516 62.663225,35.188584 C 55.327601,15.49482 39.281576,21.689553 37.147931,36.770146 z"
       id="path3182"
       style="fill:#ffffff;fill-opacity:1;fill-rule:evenodd;stroke:#000000;stroke-width:0.88699478px;stroke-linecap:butt;stroke-linejoin:miter;stroke-opacity:1" />
    <path
       d="M 13.033235,54.787421 C 25.081046,65.374399 44.008798,66.204575 57.791777,55.118682 L 57.982263,55.118008 C 48.890259,71.915245 22.917919,72.741918 13.033235,54.787421 z"
       id="path3184"
       style="fill:#ffffff;fill-opacity:1;fill-rule:evenodd;stroke:#000000;stroke-width:1px;stroke-linecap:butt;stroke-linejoin:miter;stroke-opacity:1" />
    <path
       d="M 25.600395,47.622992 C 23.517547,49.834582 22.947124,51.997608 24.085684,53.298808 C 25.224234,54.600018 27.161386,53.187018 28.299936,54.000268 C 29.438486,54.813518 30.996779,55.535665 32.203545,55.138818 C 33.635793,54.667822 34.366571,54.014927 35.993081,54.665527 C 37.619581,55.316137 39.051829,55.366988 39.831172,53.264901"
       id="path3190"
       style="fill:none;fill-rule:evenodd;stroke:#000000;stroke-width:1px;stroke-linecap:butt;stroke-linejoin:miter;stroke-opacity:1" />
    <circle
       cx="0"
       cy="0"
       r="40"
       transform="matrix(0.1158451,0,0,0.1158451,18.253521,32.856338)"
       id="circle3192"
       style="fill:#000000;fill-opacity:1;stroke:#000000;stroke-width:8.63221931" />
    <circle
       cx="0"
       cy="0"
       r="40"
       transform="matrix(0.1158451,0,0,0.1158451,47.573239,34.111268)"
       id="circle3194"
       style="fill:#000000;fill-opacity:1;stroke:#000000;stroke-width:8.63221931" />
    <path
       d="M 9.61044,29.277971 L 4.93297,25.399097"
       id="path3196"
       style="fill:none;fill-rule:evenodd;stroke:#000000;stroke-width:1px;stroke-linecap:butt;stroke-linejoin:miter;stroke-opacity:1" />
    <path
       d="M 11.54987,26.425858 L 7.671,21.748392"
       id="path3200"
       style="fill:none;fill-rule:evenodd;stroke:#000000;stroke-width:1px;stroke-linecap:butt;stroke-linejoin:miter;stroke-opacity:1" />
    <path
       d="M 13.83156,24.828675 L 11.66396,19.466703"
       id="path3202"
       style="fill:none;fill-rule:evenodd;stroke:#000000;stroke-width:1px;stroke-linecap:butt;stroke-linejoin:miter;stroke-opacity:1" />
    <path
       d="M 17.02593,24.030083 L 16.68368,18.89628"
       id="path3204"
       style="fill:none;fill-rule:evenodd;stroke:#000000;stroke-width:1px;stroke-linecap:butt;stroke-linejoin:miter;stroke-opacity:1" />
    <path
       d="M 19.99213,24.144168 L 21.70339,19.466702"
       id="path3206"
       style="fill:none;fill-rule:evenodd;stroke:#000000;stroke-width:1px;stroke-linecap:butt;stroke-linejoin:miter;stroke-opacity:1" />
    <path
       d="M 22.95832,25.855435 L 25.81044,21.976562"
       id="path3208"
       style="fill:none;fill-rule:evenodd;stroke:#000000;stroke-width:1px;stroke-linecap:butt;stroke-linejoin:miter;stroke-opacity:1" />
    <path
       d="M 25.58226,28.137125 L 29.0048,24.828674"
       id="path3210"
       style="fill:none;fill-rule:evenodd;stroke:#000000;stroke-width:1px;stroke-linecap:butt;stroke-linejoin:miter;stroke-opacity:1" />
    <path
       d="M 26.8372,30.989238 L 30.4879,29.50614"
       id="path3212"
       style="fill:none;fill-rule:evenodd;stroke:#000000;stroke-width:1px;stroke-linecap:butt;stroke-linejoin:miter;stroke-opacity:1" />
    <path
       d="M 8.35551,31.673745 L 2.87945,29.27797"
       id="path3216"
       style="fill:none;fill-rule:evenodd;stroke:#000000;stroke-width:1px;stroke-linecap:butt;stroke-linejoin:miter;stroke-opacity:1" />
    <path
       d="M 60.35091,29.762418 L 65.373191,26.968172"
       id="path3220"
       style="fill:none;fill-rule:evenodd;stroke:#000000;stroke-width:0.99999994px;stroke-linecap:butt;stroke-linejoin:miter;stroke-opacity:1" />
    <path
       d="M 56.236154,24.828674 L 59.348713,20.493463"
       id="path3222"
       style="fill:none;fill-rule:evenodd;stroke:#000000;stroke-width:1px;stroke-linecap:butt;stroke-linejoin:miter;stroke-opacity:1" />
    <path
       d="M 53.099684,23.459661 L 55.047496,19.352618"
       id="path3224"
       style="fill:none;fill-rule:evenodd;stroke:#000000;stroke-width:1px;stroke-linecap:butt;stroke-linejoin:miter;stroke-opacity:1" />
    <path
       d="M 49.491362,22.775154 L 49.530775,18.668111"
       id="path3226"
       style="fill:none;fill-rule:evenodd;stroke:#000000;stroke-width:1px;stroke-linecap:butt;stroke-linejoin:miter;stroke-opacity:1" />
    <path
       d="M 46.350697,23.345576 L 44.835322,19.010364"
       id="path3228"
       style="fill:none;fill-rule:evenodd;stroke:#000000;stroke-width:1px;stroke-linecap:butt;stroke-linejoin:miter;stroke-opacity:1" />
    <path
       d="M 42.58467,25.285013 L 40.018622,21.520224"
       id="path3230"
       style="fill:none;fill-rule:evenodd;stroke:#000000;stroke-width:1px;stroke-linecap:butt;stroke-linejoin:miter;stroke-opacity:1" />
    <path
       d="M 40.876358,27.566703 L 37.18499,24.71459"
       id="path3232"
       style="fill:none;fill-rule:evenodd;stroke:#000000;stroke-width:1px;stroke-linecap:butt;stroke-linejoin:miter;stroke-opacity:1" />
    <path
       d="M 39.022912,30.761069 L 34.4541,28.593464"
       id="path3234"
       style="fill:none;fill-rule:evenodd;stroke:#000000;stroke-width:1px;stroke-linecap:butt;stroke-linejoin:miter;stroke-opacity:1" />
    <path
       d="M 61.709255,32.928674 L 67.249876,30.761069"
       id="path3236"
       style="fill:none;fill-rule:evenodd;stroke:#000000;stroke-width:1px;stroke-linecap:butt;stroke-linejoin:miter;stroke-opacity:1" />
    <path
       d="M 57.881139,27.338534 C 61.359864,24.258252 62.252821,23.231491 62.252821,23.231491"
       id="path3238"
       style="fill:none;fill-rule:evenodd;stroke:#000000;stroke-width:1px;stroke-linecap:butt;stroke-linejoin:miter;stroke-opacity:1" />
  </g>
</svg>
