<?xml version="1.0" encoding="UTF-8" standalone="no"?>
<svg xmlns="http://www.w3.org/2000/svg"
     version="1.0"
     width="120"
     height="120">

    <path style="fill:#000000;fill-opacity:1;stroke:none;stroke-width:1px;stroke-linecap:butt;stroke-linejoin:miter;stroke-opacity:1"
       d="M 102.31629,87.358411 L 101.67257,87.358411 L 101.99442,89.879616 L 101.458,91.971683 L 101.13615,91.971683 L 100.22422,94.814742 L 99.151365,95.136596 L 98.829519,96.048524 C 96.969811,97.014091 94.44861,97.496875 91.265893,97.496875 C 90.76515,97.496875 89.996271,97.478993 88.959259,97.443228 C 84.703535,96.191575 81.324048,93.008777 78.820792,87.894837 C 78.677677,85.892187 78.391582,84.354432 77.962511,83.281568 L 77.050585,83.281568 C 75.69157,79.991499 74.743885,76.987509 74.207522,74.269595 L 74.743949,73.733169 L 74.529378,71.641102 L 73.671095,71.426532 L 73.671095,68.798042 L 72.437315,69.119897 L 72.437315,68.261614 C 70.863734,67.582169 69.272335,67.242433 67.663114,67.242402 C 67.233916,67.242433 66.71537,67.278194 66.107478,67.349688 L 64.122697,68.476186 L 61.118706,67.886116 L 58.812073,66.491405 L 55.969008,67.564259 L 53.662374,66.705975 L 52.482235,67.349688 L 52.374949,67.778829 L 51.892164,69.388109 L 51.248452,71.533817 L 51.033882,72.284815 C 50.282843,73.572262 49.40668,75.413994 48.405391,77.810012 L 49.049104,79.472934 L 47.278894,83.817993 L 46.098755,85.051774 L 45.884183,87.036555 C 45.204676,87.751799 44.614604,88.914057 44.113976,90.523328 L 41.163627,93.741886 L 37.945066,94.278318 L 37.408639,95.136596 L 36.550356,95.351166 L 35.638431,96.048524 L 34.243722,96.048524 L 31.347017,97.443228 L 31.025161,96.584956 L 29.040381,97.121378 L 26.948317,96.584956 L 26.733746,96.048524 L 25.875463,96.263097 L 22.01319,95.136596 C 21.548274,94.56441 20.636349,94.063748 19.277412,93.634601 C 17.954218,93.169708 17.149576,92.812084 16.863491,92.561753 C 16.613152,92.347184 15.629704,91.59619 13.913142,90.308757 L 13.323074,89.879616 L 11.016437,84.408062 L 11.016437,80.653074 C 12.017765,78.793479 12.715119,76.558368 13.108503,73.947739 L 13.698571,73.947739 L 13.698571,73.411313 L 14.556854,73.411313 L 16.541635,69.656325 L 19.170127,68.476186 L 19.491982,67.027832 C 19.956877,67.242433 20.43966,67.349717 20.940335,67.349688 C 21.369466,67.349717 21.995296,67.296076 22.817829,67.188761 C 23.676098,67.081505 24.409215,67.027861 25.01718,67.027832 C 26.876775,67.027861 28.521815,67.439121 29.952306,68.261614 L 32.473512,71.104676 L 33.117224,69.334469 L 34.565578,68.476186 L 35.423861,65.954978 L 37.086782,65.257625 L 37.945066,64.184769 C 39.339746,63.505329 40.215908,62.91526 40.573559,62.41456 L 43.255693,62.41456 L 43.79212,62.092704 L 47.868964,63.541058 L 50.497455,62.950987 C 50.604699,61.806645 51.194771,60.036439 52.267665,57.640363 C 53.23319,55.423173 53.715973,53.581441 53.716015,52.115165 C 53.715973,52.079449 53.69809,51.73971 53.662374,51.095955 C 54.127232,50.559574 55.057039,48.789366 56.451793,45.785328 C 57.739171,43.031725 58.454404,41.243636 58.597501,40.42106 L 61.494206,36.612429 L 62.35249,32.535585 L 62.030634,30.872661 C 62.423961,29.907159 62.62065,29.174044 62.620702,28.673312 C 62.62065,28.566093 62.602769,28.423048 62.56706,28.24417 C 62.996148,27.815098 63.693503,26.348864 64.659124,23.84547 C 68.735908,23.845543 72.025991,23.666735 74.529378,23.309044 C 74.922693,23.666735 75.459118,23.845543 76.138658,23.84547 C 76.567735,23.845543 77.10416,23.774021 77.747939,23.6309 L 77.962511,24.167326 L 79.35722,24.167326 L 79.35722,24.757394 L 79.142648,25.07925 L 79.142648,25.615678 C 78.498868,26.259461 77.72999,26.67072 76.836016,26.849461 L 76.192302,27.707744 L 75.334019,30.872661 L 76.836016,34.091223 L 76.836016,37.256142 C 76.835946,38.114482 76.549854,39.25886 75.977732,40.689274 L 77.747939,42.995908 L 77.747939,43.854191 L 77.962511,43.63962 L 78.498937,48.467462 L 77.962511,49.701246 L 80.269146,53.939016 L 79.142648,56.031083 C 79.142581,57.640401 79.321389,58.820539 79.679076,59.5715 L 79.142648,62.092704 L 80.591003,65.257625 L 81.12743,64.721197 L 83.21949,65.257625 L 89.602967,64.184769 C 90.210841,63.898709 91.283689,63.14771 92.821534,61.931777 C 94.359202,60.68015 95.181727,59.786106 95.289093,59.249644 L 95.986444,59.5715 L 95.289093,62.092704 L 95.610956,63.272844 L 96.201017,63.862913 L 96.201017,64.399342 L 94.752668,65.57948 L 95.074524,66.705975 L 94.430814,67.349688 L 91.587747,68.476186 L 89.602967,68.476186 C 88.5658,69.191449 87.68964,69.584828 86.974481,69.656325 C 86.652546,69.155686 85.95519,68.690783 84.882416,68.261614 L 81.985713,68.261614 L 81.449285,68.476186 L 80.91286,69.119897 L 81.663857,70.192751 C 81.949878,71.229868 82.253854,72.696099 82.575781,74.591451 L 84.077776,77.166301 L 83.755922,78.668295 C 85.186312,81.386206 86.151883,84.175623 86.652627,87.036555 L 88.047335,88.806762 L 88.691043,89.021333 L 88.959259,91.649828 C 89.495601,92.257784 90.55058,93.241224 92.124181,94.600172 L 94.216245,95.136596 L 96.522876,94.278318 L 97.917591,92.829961 C 98.382393,91.828637 98.614852,90.344526 98.614949,88.37762 C 98.614852,87.769679 98.579093,86.839873 98.507654,85.588201 L 97.595726,84.729918 L 97.059307,84.729918 C 96.165177,85.659736 95.575107,86.714708 95.289093,87.894837 L 93.894383,88.431264 L 94.216245,90.7379 L 95.074524,91.435255 L 95.610956,90.523328 L 96.201017,91.113399 L 96.201017,91.971683 L 95.986444,92.186253 L 94.216245,92.186253 C 93.465162,92.007444 92.588999,91.757114 91.587747,91.435255 C 91.337335,89.933267 91.212165,88.753128 91.212256,87.894837 C 91.212165,87.644514 91.230051,87.35842 91.265893,87.036555 L 90.675823,87.036555 L 90.675823,85.802771 C 91.06912,84.515359 91.373097,83.674958 91.587747,83.281568 L 92.124181,83.281568 L 92.446035,82.423284 L 94.752668,80.97493 L 97.381156,80.653074 L 99.365935,81.511357 L 99.365935,83.496137 L 100.59972,83.817993 L 102.31629,86.714698 L 102.31629,87.358411 z M 72.759171,58.659572 L 72.437315,58.337716 C 70.720686,53.867536 69.844524,49.522483 69.808822,45.302545 L 70.452533,45.302545 L 70.452533,43.317765 L 71.042605,42.727695 L 71.042605,40.42106 C 70.470354,40.170784 69.880285,39.67012 69.272395,38.919064 L 68.950539,34.091223 L 69.272395,33.393869 L 66.643905,28.458741 L 66.429334,31.999159 L 66.107478,32.321015 L 64.980981,37.792569 C 63.478932,39.437668 62.119984,41.851586 60.904137,45.03433 L 60.045853,45.624402 C 58.651095,48.914535 57.882217,51.811234 57.739218,54.314517 L 56.827292,55.709226 C 56.863007,55.888076 56.880888,56.031121 56.880935,56.138368 C 56.880888,57.533116 56.183534,59.446369 54.78887,61.878134 L 54.78887,62.736416 L 56.183579,63.541058 L 57.417363,63.541058 L 58.597501,62.950987 L 59.40214,63.862913 C 61.583559,64.005994 63.335885,64.292088 64.659124,64.721197 L 66.643905,64.399342 L 68.735968,65.257625 C 69.451144,65.078845 70.130619,64.989441 70.774389,64.989409 C 71.060422,64.989441 71.328638,65.007324 71.579031,65.043053 L 71.579031,62.092704 L 72.115459,61.556278 C 72.186918,61.234459 72.240562,61.002006 72.276386,60.858924 C 72.383609,59.392727 72.544536,58.659611 72.759171,58.659572 L 72.759171,58.659572 L 72.759171,58.659572 L 72.759171,58.659572 L 72.759171,58.659572 z M 49.049104,66.705975 L 48.834532,66.705975 C 48.011972,66.706004 47.243095,66.634482 46.527896,66.491405 C 45.526532,66.276863 44.72189,66.169581 44.113976,66.169549 C 43.649038,66.169581 43.041088,66.258983 42.290124,66.437763 C 41.789427,66.545078 41.342404,66.634482 40.949057,66.705975 L 39.715275,67.886116 C 39.572199,68.780187 38.696036,70.031849 37.086782,71.641102 C 37.050995,71.998745 36.925829,72.606696 36.711286,73.464953 C 36.460925,74.251736 36.335761,74.93121 36.335786,75.503376 L 35.423861,76.898085 L 34.565578,83.496137 L 33.331796,85.266345 L 31.025161,85.802771 L 29.254952,87.036555 C 24.248287,85.999472 21.548274,83.478269 21.154906,79.472934 L 21.476762,76.57623 C 22.728412,75.539158 23.497289,74.662996 23.783397,73.947739 L 24.105253,73.947739 L 24.319823,73.089457 L 25.23175,72.874886 L 26.090034,73.947739 L 25.553606,75.503376 L 26.41189,77.166301 L 25.875463,77.166301 L 25.875463,78.668295 L 24.641679,79.204723 L 24.319823,80.116648 L 25.875463,82.959711 L 26.41189,82.959711 L 26.733746,83.817993 L 29.952306,83.496137 L 31.561587,80.116648 L 30.488734,74.591451 C 29.845001,74.55571 28.968839,73.983524 27.860241,72.874886 L 28.182097,71.641102 L 24.641679,71.104676 C 22.102582,71.819938 20.493303,72.642458 19.813838,73.57224 C 19.098593,74.394783 18.293954,75.038495 17.399918,75.503376 L 17.399918,76.039803 L 16.541635,77.810012 C 16.541628,80.42064 16.36282,82.548462 16.005208,84.193492 L 17.399918,87.036555 L 18.633699,87.572981 L 19.491982,89.879616 L 25.01718,93.420031 C 26.090018,93.63461 26.715847,93.741894 26.894673,93.741886 C 27.144989,93.741894 28.235723,93.63461 30.166878,93.420031 C 32.169515,91.131286 34.404624,89.593528 36.872212,88.806762 L 35.423861,88.806762 L 35.638431,87.572981 L 36.872212,87.894837 C 38.231132,87.000803 39.00001,86.231925 39.178849,85.588201 L 38.642423,85.266345 C 39.929816,83.192174 41.539096,80.992829 43.470264,78.668295 L 42.880194,77.488156 L 44.113976,76.898085 L 49.049104,66.705975 z"/>
</svg>
