<?xml version="1.0" encoding="UTF-8" standalone="no"?>
<!-- Created with Inkscape (http://www.inkscape.org/) -->
<svg
   xmlns:svg="http://www.w3.org/2000/svg"
   xmlns="http://www.w3.org/2000/svg"
   version="1.0"
   width="81"
   height="81"
   id="svg2510">

  <g id="smile">
    <circle
       cx="0"
       cy="0"
       r="40"
       transform="translate(40.5,40.5)"
       id="circle3178"
       style="fill:#ffffe0;stroke:#000000;stroke-width:1" />
    <path
       d="M 7.760527,34.173464 C 12.180963,39.691804 24.745156,39.901261 27.540459,36.340277 C 26.800966,21.087717 11.128577,19.25711 7.760527,34.173464 z"
       id="path3180"
       style="fill:#ffffff;fill-opacity:1;fill-rule:evenodd;stroke:#000000;stroke-width:0.88699478px;stroke-linecap:butt;stroke-linejoin:miter;stroke-opacity:1" />
    <path
       d="M 37.147931,36.770146 C 42.116409,41.692594 58.151084,41.274516 62.663225,35.188584 C 55.327601,15.49482 39.281576,21.689553 37.147931,36.770146 z"
       id="path3182"
       style="fill:#ffffff;fill-opacity:1;fill-rule:evenodd;stroke:#000000;stroke-width:0.88699478px;stroke-linecap:butt;stroke-linejoin:miter;stroke-opacity:1" />
    <path
       d="M 13.033235,54.787421 C 25.081046,65.374399 44.008798,66.204575 57.791777,55.118682 L 57.982263,55.118008 C 48.890259,71.915245 22.917919,72.741918 13.033235,54.787421 z"
       id="path3184"
       style="fill:#ffffff;fill-opacity:1;fill-rule:evenodd;stroke:#000000;stroke-width:1px;stroke-linecap:butt;stroke-linejoin:miter;stroke-opacity:1" />
    <path
       d="M 25.600395,47.622992 C 23.517547,49.834582 22.947124,51.997608 24.085684,53.298808 C 25.224234,54.600018 27.161386,53.187018 28.299936,54.000268 C 29.438486,54.813518 30.996779,55.535665 32.203545,55.138818 C 33.635793,54.667822 34.366571,54.014927 35.993081,54.665527 C 37.619581,55.316137 39.051829,55.366988 39.831172,53.264901"
       id="path3190"
       style="fill:none;fill-rule:evenodd;stroke:#000000;stroke-width:1px;stroke-linecap:butt;stroke-linejoin:miter;stroke-opacity:1" />
    <circle
       cx="0"
       cy="0"
       r="40"
       transform="matrix(0.1158451,0,0,0.1158451,18.253521,32.856338)"
       id="circle3192"
       style="fill:#000000;fill-opacity:1;stroke:#000000;stroke-width:8.63221931" />
    <circle
       cx="0"
       cy="0"
       r="40"
       transform="matrix(0.1158451,0,0,0.1158451,47.573239,34.111268)"
       id="circle3194"
       style="fill:#000000;fill-opacity:1;stroke:#000000;stroke-width:8.63221931" />
    <path
       d="M 9.61044,29.277971 L 4.93297,25.399097"
       id="path3196"
       style="fill:none;fill-rule:evenodd;stroke:#000000;stroke-width:1px;stroke-linecap:butt;stroke-linejoin:miter;stroke-opacity:1" />
    <path
       d="M 11.54987,26.425858 L 7.671,21.748392"
       id="path3200"
       style="fill:none;fill-rule:evenodd;stroke:#000000;stroke-width:1px;stroke-linecap:butt;stroke-linejoin:miter;stroke-opacity:1" />
    <path
       d="M 13.83156,24.828675 L 11.66396,19.466703"
       id="path3202"
       style="fill:none;fill-rule:evenodd;stroke:#000000;stroke-width:1px;stroke-linecap:butt;stroke-linejoin:miter;stroke-opacity:1" />
    <path
       d="M 17.02593,24.030083 L 16.68368,18.89628"
       id="path3204"
       style="fill:none;fill-rule:evenodd;stroke:#000000;stroke-width:1px;stroke-linecap:butt;stroke-linejoin:miter;stroke-opacity:1" />
    <path
       d="M 19.99213,24.144168 L 21.70339,19.466702"
       id="path3206"
       style="fill:none;fill-rule:evenodd;stroke:#000000;stroke-width:1px;stroke-linecap:butt;stroke-linejoin:miter;stroke-opacity:1" />
    <path
       d="M 22.95832,25.855435 L 25.81044,21.976562"
       id="path3208"
       style="fill:none;fill-rule:evenodd;stroke:#000000;stroke-width:1px;stroke-linecap:butt;stroke-linejoin:miter;stroke-opacity:1" />
    <path
       d="M 25.58226,28.137125 L 29.0048,24.828674"
       id="path3210"
       style="fill:none;fill-rule:evenodd;stroke:#000000;stroke-width:1px;stroke-linecap:butt;stroke-linejoin:miter;stroke-opacity:1" />
    <path
       d="M 26.8372,30.989238 L 30.4879,29.50614"
       id="path3212"
       style="fill:none;fill-rule:evenodd;stroke:#000000;stroke-width:1px;stroke-linecap:butt;stroke-linejoin:miter;stroke-opacity:1" />
    <path
       d="M 8.35551,31.673745 L 2.87945,29.27797"
       id="path3216"
       style="fill:none;fill-rule:evenodd;stroke:#000000;stroke-width:1px;stroke-linecap:butt;stroke-linejoin:miter;stroke-opacity:1" />
    <path
       d="M 60.35091,29.762418 L 65.373191,26.968172"
       id="path3220"
       style="fill:none;fill-rule:evenodd;stroke:#000000;stroke-width:0.99999994px;stroke-linecap:butt;stroke-linejoin:miter;stroke-opacity:1" />
    <path
       d="M 56.236154,24.828674 L 59.348713,20.493463"
       id="path3222"
       style="fill:none;fill-rule:evenodd;stroke:#000000;stroke-width:1px;stroke-linecap:butt;stroke-linejoin:miter;stroke-opacity:1" />
    <path
       d="M 53.099684,23.459661 L 55.047496,19.352618"
       id="path3224"
       style="fill:none;fill-rule:evenodd;stroke:#000000;stroke-width:1px;stroke-linecap:butt;stroke-linejoin:miter;stroke-opacity:1" />
    <path
       d="M 49.491362,22.775154 L 49.530775,18.668111"
       id="path3226"
       style="fill:none;fill-rule:evenodd;stroke:#000000;stroke-width:1px;stroke-linecap:butt;stroke-linejoin:miter;stroke-opacity:1" />
    <path
       d="M 46.350697,23.345576 L 44.835322,19.010364"
       id="path3228"
       style="fill:none;fill-rule:evenodd;stroke:#000000;stroke-width:1px;stroke-linecap:butt;stroke-linejoin:miter;stroke-opacity:1" />
    <path
       d="M 42.58467,25.285013 L 40.018622,21.520224"
       id="path3230"
       style="fill:none;fill-rule:evenodd;stroke:#000000;stroke-width:1px;stroke-linecap:butt;stroke-linejoin:miter;stroke-opacity:1" />
    <path
       d="M 40.876358,27.566703 L 37.18499,24.71459"
       id="path3232"
       style="fill:none;fill-rule:evenodd;stroke:#000000;stroke-width:1px;stroke-linecap:butt;stroke-linejoin:miter;stroke-opacity:1" />
    <path
       d="M 39.022912,30.761069 L 34.4541,28.593464"
       id="path3234"
       style="fill:none;fill-rule:evenodd;stroke:#000000;stroke-width:1px;stroke-linecap:butt;stroke-linejoin:miter;stroke-opacity:1" />
    <path
       d="M 61.709255,32.928674 L 67.249876,30.761069"
       id="path3236"
       style="fill:none;fill-rule:evenodd;stroke:#000000;stroke-width:1px;stroke-linecap:butt;stroke-linejoin:miter;stroke-opacity:1" />
    <path
       d="M 57.881139,27.338534 C 61.359864,24.258252 62.252821,23.231491 62.252821,23.231491"
       id="path3238"
       style="fill:none;fill-rule:evenodd;stroke:#000000;stroke-width:1px;stroke-linecap:butt;stroke-linejoin:miter;stroke-opacity:1" />
  </g>
</svg>
